<svg xmlns="http://www.w3.org/2000/svg" viewBox="0 0 560 320" fill="none"><rect width="560" height="320" fill="#f5f1eb"/><text x="24" y="36" fill="#7a7268" font-family="system-ui,sans-serif" font-size="13" font-weight="600">Silhouette</text><path fill="#2a2522" d="M420 240c40-60 20-120-30-140s-90 10-110 50-10 80 20 100 90 20 120-10zm-180 10c-35-5-55-45-40-80s55-50 90-35 45 55 30 85-45 45-80 30zm-100-20c-25-25-15-70 15-85s65 5 75 40-15 65-45 70c-15 2-35-10-45-25z"/><path stroke="#c49a6c" stroke-width="2" opacity=".5" d="M48 280h464"/></svg>
